<svg width="63" height="27" viewBox="0 0 63 27" fill="none" xmlns="http://www.w3.org/2000/svg">
<rect width="62.8506" height="26.931" rx="13.4655" fill="#1C232B"/>
<path d="M30.3076 18.8821C29.734 18.9946 29.1717 19.0424 28.6206 19.0255C28.0695 19.0086 27.5774 18.9018 27.1444 18.7049C26.7114 18.5081 26.3852 18.1988 26.1659 17.7771C25.9691 17.4003 25.8622 17.0179 25.8454 16.6299C25.8341 16.2362 25.8285 15.792 25.8285 15.2971V7.24138H27.5999V15.2127C27.5999 15.5783 27.6027 15.896 27.6084 16.1659C27.6196 16.4359 27.6786 16.6636 27.7855 16.8492C27.9879 17.1978 28.3085 17.3975 28.7471 17.4481C29.1914 17.4931 29.7116 17.4734 30.3076 17.389V18.8821ZM24.0824 11.1891V9.77197H30.3076V11.1891H24.0824Z" fill="white"/>
<path d="M33.6202 19.1351C32.9454 19.1351 32.3802 19.0114 31.9247 18.764C31.4692 18.5109 31.1234 18.1791 30.8872 17.7686C30.6566 17.3525 30.5413 16.897 30.5413 16.4021C30.5413 15.941 30.6229 15.5361 30.786 15.1874C30.949 14.8388 31.1908 14.5435 31.5114 14.3017C31.8319 14.0543 32.2256 13.8547 32.6923 13.7028C33.0972 13.5847 33.5555 13.4807 34.0673 13.3907C34.579 13.3007 35.1161 13.2164 35.6784 13.1377C36.2464 13.0589 36.8088 12.9802 37.3655 12.9015L36.7244 13.2557C36.7357 12.5416 36.5838 12.0129 36.2689 11.6699C35.9596 11.3213 35.4254 11.1469 34.6662 11.1469C34.1882 11.1469 33.7496 11.2594 33.3503 11.4843C32.951 11.7037 32.6726 12.0692 32.5152 12.5809L30.8703 12.0748C31.0952 11.2931 31.5226 10.6717 32.1525 10.2106C32.7879 9.74948 33.6315 9.51891 34.6831 9.51891C35.4985 9.51891 36.207 9.6595 36.8088 9.94067C37.4161 10.2162 37.8604 10.6549 38.1415 11.2566C38.2877 11.5546 38.3777 11.8695 38.4115 12.2013C38.4452 12.5331 38.4621 12.8902 38.4621 13.2726V18.8821H36.9015V16.7986L37.2052 17.0685C36.8284 17.7658 36.3476 18.286 35.7628 18.629C35.1836 18.9664 34.4694 19.1351 33.6202 19.1351ZM33.9323 17.6927C34.4328 17.6927 34.863 17.6055 35.2229 17.4312C35.5828 17.2513 35.8724 17.0235 36.0918 16.748C36.3111 16.4724 36.4545 16.1856 36.522 15.8876C36.6176 15.6176 36.671 15.314 36.6822 14.9765C36.6991 14.6391 36.7075 14.3692 36.7075 14.1668L37.2811 14.3776C36.7244 14.462 36.2183 14.5379 35.7628 14.6054C35.3073 14.6729 34.8939 14.7404 34.5228 14.8078C34.1573 14.8697 33.8311 14.9456 33.5443 15.0356C33.3025 15.1199 33.086 15.2212 32.8948 15.3393C32.7092 15.4574 32.5602 15.6008 32.4477 15.7695C32.3409 15.9382 32.2874 16.1434 32.2874 16.3852C32.2874 16.6214 32.3465 16.8407 32.4646 17.0432C32.5827 17.24 32.7626 17.3975 33.0044 17.5156C33.2463 17.6337 33.5555 17.6927 33.9323 17.6927Z" fill="white"/>
<path d="M39.6403 18.8821V7.24188H41.4032V18.8821H39.6403Z" fill="white"/>
<path d="M43.9869 22.931L45.7499 18.1313L45.7752 19.5485L41.8022 9.77197H43.6411L46.6103 17.3216H46.0705L48.9047 9.77197H50.693L45.6656 22.931H43.9869Z" fill="white"/>
<path d="M15.8813 9.96701C15.4908 10.2299 15.2076 10.6241 15.0828 11.0779C15.0457 11.2362 15.0259 11.398 15.0238 11.5605V19.5834L14.8745 19.6736C14.5836 19.8428 14.2533 19.9322 13.9168 19.9329C13.5803 19.9336 13.2496 19.8455 12.958 19.6776C12.6664 19.5096 12.4243 19.2677 12.2561 18.9762C12.0879 18.6848 11.9996 18.3542 12 18.0177V14.5461C12 11.9875 15.2668 10.3628 15.8813 9.96701Z" fill="#CAD2DB"/>
<path fill-rule="evenodd" clip-rule="evenodd" d="M12 14.5462L12.0035 14.5453C12.0035 12.2525 14.6269 10.7096 15.6141 10.129C15.7087 10.0734 15.7882 10.0266 15.849 9.98882C15.89 9.9604 15.9322 9.93353 15.9755 9.9083L21.0393 6.9622V6.9206C21.04 6.58263 20.9513 6.25049 20.7823 5.95785C20.6132 5.6652 20.3697 5.42247 20.0766 5.25426C19.7835 5.08605 19.4511 4.99834 19.1131 5.00002C18.7751 5.00171 18.4436 5.09273 18.1522 5.26385L12.9532 8.29314C12.6634 8.46202 12.423 8.70383 12.2558 8.99449C12.0886 9.28516 12.0004 9.61455 12 9.94989V14.5462Z" fill="#0E85FF"/>
</svg>
